<?xml version="1.0" encoding="utf-8"?>
<!-- Generator: Adobe Illustrator 26.0.0, SVG Export Plug-In . SVG Version: 6.00 Build 0)  -->
<svg version="1.1" id="Layer_1" xmlns="http://www.w3.org/2000/svg" xmlns:xlink="http://www.w3.org/1999/xlink" x="0px" y="0px" viewBox="0 0 841.89 595.28" style="enable-background: new 0 0 841.89 595.28" xml:space="preserve">
<style>.st0 {
  fill: url("#SVGID_1_");
}

</style>
<g>
	<g>
		<g>
			<linearGradient id="SVGID_1_" gradientUnits="userSpaceOnUse" x1="16.995" y1="321.4325" x2="824.8949" y2="321.4325">
				<stop offset="0" style="stop-color: #e44e9b"></stop>
				<stop offset="1" style="stop-color: #f8a03b"></stop>
			</linearGradient>
			<path class="st0" d="M822.66,349.73c-2.16,14.03-5.82,27.79-10.76,40.83c-21.57,56.94-62.2,92.32-120.88,107.29
				c-55.83,14.25-104.64-0.07-147.63-37.05c-18.87-16.24-35.29-34.98-52.76-52.64c-0.34-0.35-0.46-0.92-1.31-2.72
				c7.31,4.1,13.54,7.55,19.73,11.07c23.32,13.25,45.9,27.87,70.66,38.47c46.03,19.69,90.59,17.97,132.36-10.94
				c29.12-20.15,46.09-48.59,52.43-83.41c10.44-57.38-15.75-109.64-68.32-136.61c-25.59-13.13-51.89-17.8-79.82-8.2
				c-14.99,5.15-27.4,14.67-40.56,22.99c-45.18,28.58-82.08,66.72-120.07,103.6c-31.89,30.96-63.28,62.45-96.83,91.65
				c-26.27,22.86-54.5,42.76-87.2,55.58c-39.81,15.61-80.06,16.81-120.9,4.19c-26.51-8.19-50.75-20.49-71.78-38.67
				c-31.1-26.88-49.3-61.36-57.96-101.07c-10.93-50.11,0.61-95.81,29.28-137.39c29.33-42.54,71.09-65.99,121.31-74.4
				c31.78-5.32,62.13,1.17,90.47,16.35c35.35,18.94,62.13,47.16,85.73,80.19c-3.9-0.73-6.08-2.76-8.46-4.33
				c-24.36-16.06-47.68-33.84-74.13-46.52c-43.07-20.64-85.22-17.67-125.5,7.21c-28.04,17.31-47.98,41.56-58.12,73.49
				c-18.55,58.42,8.57,125.06,63.65,151.84c40.18,19.54,79.83,15.12,116.87-9.1c26.19-17.13,49.01-38.61,71.43-60.31
				c41.35-40.03,84.85-77.61,128.58-114.96c28.02-23.93,56.78-46.86,87.79-66.89c28.32-18.29,58.58-30.07,92.85-29.71
				c35.92,0.38,67.79,12.67,96.76,33.06c28.89,20.33,52.8,45.27,69.05,77.03C824.27,280.27,827.88,315.77,822.66,349.73z"></path>
		</g>
	</g>
</g>
</svg>
